Ambition and 10% off the top are what make Crystal's talent agent Sammy run. He's determined to bring his gentle, Shakespeare-quoting discovery (Muresan) from rural Romania to the USA. Sammy aims to turn his naïve client into the biggest thing to hit action films since, well, there's been no one this big. But is a chance to star opposite Stephen Seagal (playing himself in a clever cameo) what this gentle giant really wants


Format                           : MPEG-4
Format profile                   : Base Media / Version 2
Codec ID                         : mp42
File size                        : 902 MiB
Duration                         : 1h 43mn
Overall bit rate                 : 1 220 Kbps
Encoded date                     : UTC 2009-07-30 04:34:21
Tagged date                      : UTC 2009-07-30 08:39:51
Writing application              : HandBrake 0.9.3 2008112300

Video
ID                               : 1
Format                           : AVC
Format/Info                      : Advanced Video Codec
Format profile                   : Main@L4.0
Format settings, CABAC           : Yes
Format settings, ReFrames        : 3 frames
Codec ID                         : avc1
Codec ID/Info                    : Advanced Video Coding
Duration                         : 1h 43mn
Bit rate mode                    : Variable
Bit rate                         : 1 054 Kbps
Width                            : 720 pixels
Height                           : 480 pixels
Display aspect ratio             : 16/9
Frame rate mode                  : Variable
Frame rate                       : 24.000 fps
Minimum frame rate               : 13.319 fps
Maximum frame rate               : 29.981 fps
Original frame rate              : 23.976 fps
Standard                         : NTSC
Resolution                       : 24 bits
Colorimetry                      : 4:2:0
Scan type                        : Progressive
Bits/(Pixel*Frame)               : 0.127
Stream size                      : 780 MiB (86%)
Writing library                  : x264 core 65
Encoding settings                : cabac=1 / ref=2 / deblock=1:-2:-1 / analyse=0x1:0x131 / me=umh / subme=9 / psy_rd=1.0:0.0 / mixed_ref=1 / me_range=16 / chroma_me=1 / trellis=0 / 8x8dct=0 / cqm=0 / deadzone=21,11 / chroma_qp_offset=-2 / threads=3 / nr=0 / decimate=1 / mbaff=0 / bframes=3 / b_pyramid=1 / b_adapt=1 / b_bias=0 / direct=3 / wpredb=1 / keyint=240 / keyint_min=24 / scenecut=40(pre) / rc=2pass / bitrate=1054 / ratetol=1.0 / qcomp=0.60 / qpmin=10 / qpmax=51 / qpstep=4 / cplxblur=20.0 / qblur=0.5 / ip_ratio=1.40 / pb_ratio=1.30 / aq=1:1.00
Encoded date                     : UTC 2009-07-30 04:34:21
Tagged date                      : UTC 2009-07-30 08:39:51

Audio
ID                               : 2
Format                           : AAC
Format/Info                      : Advanced Audio Codec
Format version                   : Version 4
Format profile                   : LC
Format settings, SBR             : No
Codec ID                         : 40
Duration                         : 1h 43mn
Bit rate mode                    : Variable
Bit rate                         : 160 Kbps
Maximum bit rate                 : 196 Kbps
Channel(s)                       : 2 channels
Channel positions                : L R
Sampling rate                    : 48.0 KHz
Resolution                       : 16 bits
Stream size                      : 118 MiB (13%)
Language                         : English
Encoded date                     : UTC 2009-07-30 04:34:21
Tagged date                      : UTC 2009-07-30 08:39:43

